<svg xmlns="http://www.w3.org/2000/svg" height="200px" width="200px" shape-rendering="geometricPrecision" text-rendering="geometricPrecision" image-rendering="optimizeQuality" fill-rule="evenodd" clip-rule="evenodd" viewBox="0 0 512 406.7"><path d="M297.62 104.5c2.96-23.67 38.63-19.15 35.6 4.5l-11.72 94.09 65.07 50.56c7.86 6.09 9.3 17.39 3.21 25.26a18.029 18.029 0 01-11.96 6.83c-4.73.62-9.51-.68-13.26-3.62l-72.82-56.61c-2.51-1.82-4.5-4.26-5.79-7.08a18.366 18.366 0 01-1.46-9.67l13.13-104.21v-.05zM0 129.16v-15.4C3.96 50.8 56.26.94 120.21.93h.05c66.57-.03 120.56 53.92 120.59 120.5.02 66.58-53.93 120.57-120.51 120.59C56.33 242.04 3.97 192.17 0 129.16zm88.06-21.07v-9.41c-2.58-.48-6.75-.72-12.51-.72S62.61 98.97 54.02 101l-3.36-21.42c10.49-3.67 20.64-5.5 30.44-5.5 8.42 0 14.52.58 18.31 1.74 3.78 1.15 6.57 2.55 8.38 4.19 3.95 3.77 5.93 9.46 5.93 17.08 0 9.64-3.57 16.59-10.7 20.84v.72c8.51 3.95 12.76 11.14 12.76 21.56 0 5.11-.71 9.48-2.13 13.09-1.41 3.62-3.2 6.42-5.35 8.4-2.15 1.98-4.98 3.54-8.51 4.7-5.24 1.64-12.61 2.46-22.11 2.46s-19.02-1.25-28.56-3.76l3.61-23.88c8.17 2.22 15.09 3.33 20.76 3.33 5.67 0 10.53-.29 14.57-.87v-9.26l-22.18-2.46v-20.98l22.18-2.89zm41.2 48.69c-2.45-4.2-4.15-9.05-5.1-14.54-.94-5.5-1.42-12.43-1.42-20.77s.48-15.27 1.42-20.76c.95-5.5 2.65-10.35 5.1-14.55 2.45-4.19 5.97-7.26 10.57-9.19 4.6-1.92 10.42-2.89 17.47-2.89 7.05 0 12.85.97 17.41 2.89 4.56 1.93 8.08 5 10.57 9.19 2.5 4.2 4.19 9.05 5.1 14.55.9 5.49 1.35 12.44 1.35 20.83 0 8.4-.45 15.32-1.35 20.77-.91 5.45-2.6 10.27-5.1 14.47-2.49 4.19-6.01 7.26-10.57 9.19-4.56 1.93-10.36 2.89-17.41 2.89-7.05 0-12.87-.96-17.47-2.89-4.6-1.93-8.12-5-10.57-9.19zm20.05-51.73v40.51h5.41c3.87 0 6.58-.45 8.13-1.37 1.55-.92 2.32-3.02 2.32-6.3V97.38h-6.06c-3.78 0-6.36.43-7.74 1.3-1.37.87-2.06 2.99-2.06 6.37zm319.96-26.39c68.82 88.59 52.8 216.2-35.78 285.03-.08.05-.15.11-.23.17-104.27 81.03-252.89 41.79-307.96-72.87 12.77-.36 25.45-2.18 37.81-5.41 4.02 7.08 8.55 13.87 13.54 20.3 56.7 72.79 161.68 85.84 234.46 29.15 72.8-56.7 85.85-161.67 29.15-234.47-40.27-51.72-107.08-75.1-170.82-59.79a170.665 170.665 0 00-21.88-31.3c2.46-.79 4.96-1.5 7.46-2.21 78.59-21.7 163.76 6.16 214.25 71.4z"/></svg>